<?xml version="1.0" encoding="UTF-8" standalone="no"?>
<!DOCTYPE svg PUBLIC "-//W3C//DTD SVG 1.1//EN"
 "http://www.w3.org/Graphics/SVG/1.1/DTD/svg11.dtd">
<!-- Generated by graphviz version 13.1.0 (20250701.0955)
 -->
<!-- Title: ComputationGraph Pages: 1 -->
<svg width="700pt" height="228pt"
 viewBox="0.00 0.00 700.00 228.00" xmlns="http://www.w3.org/2000/svg" xmlns:xlink="http://www.w3.org/1999/xlink">
<g id="graph0" class="graph" transform="scale(1 1) rotate(0) translate(4 224.17)">
<title>ComputationGraph</title>
<!-- a -->
<g id="node1" class="node">
<title>a</title>
<ellipse fill="none" stroke="black" cx="18" cy="-109.84" rx="18" ry="18"/>
<text xml:space="preserve" text-anchor="middle" x="18" y="-104.79" font-family="Times,serif" font-size="14.00">a</text>
</g>
<!-- b -->
<g id="node2" class="node">
<title>b</title>
<ellipse fill="none" stroke="black" cx="119.77" cy="-109.84" rx="47.77" ry="47.77"/>
<text xml:space="preserve" text-anchor="middle" x="119.77" y="-104.79" font-family="Times,serif" font-size="14.00">b = 5 &#45; 3a</text>
</g>
<!-- a&#45;&gt;b -->
<g id="edge1" class="edge">
<title>a&#45;&gt;b</title>
<path fill="none" stroke="black" d="M36.38,-109.84C43.21,-109.84 51.48,-109.84 60.12,-109.84"/>
<polygon fill="black" stroke="black" points="60.07,-113.34 70.07,-109.84 60.07,-106.34 60.07,-113.34"/>
</g>
<!-- c -->
<g id="node3" class="node">
<title>c</title>
<ellipse fill="none" stroke="black" cx="254.38" cy="-169.84" rx="50.33" ry="50.33"/>
<text xml:space="preserve" text-anchor="middle" x="254.38" y="-164.79" font-family="Times,serif" font-size="14.00">c = 2b + 3</text>
</g>
<!-- b&#45;&gt;c -->
<g id="edge2" class="edge">
<title>b&#45;&gt;c</title>
<path fill="none" stroke="black" d="M163.82,-129.32C174.71,-134.25 186.55,-139.6 197.95,-144.76"/>
<polygon fill="black" stroke="black" points="196.33,-147.87 206.88,-148.8 199.21,-141.49 196.33,-147.87"/>
</g>
<!-- d -->
<g id="node4" class="node">
<title>d</title>
<ellipse fill="none" stroke="black" cx="254.38" cy="-50.84" rx="50.84" ry="50.84"/>
<text xml:space="preserve" text-anchor="middle" x="254.38" y="-45.79" font-family="Times,serif" font-size="14.00">d = 5b + 6</text>
</g>
<!-- b&#45;&gt;d -->
<g id="edge3" class="edge">
<title>b&#45;&gt;d</title>
<path fill="none" stroke="black" d="M163.82,-90.68C174.37,-85.99 185.81,-80.9 196.88,-75.98"/>
<polygon fill="black" stroke="black" points="198.24,-79.2 205.96,-71.94 195.4,-72.8 198.24,-79.2"/>
</g>
<!-- e -->
<g id="node5" class="node">
<title>e</title>
<ellipse fill="none" stroke="black" cx="400.25" cy="-109.84" rx="59.03" ry="59.03"/>
<text xml:space="preserve" text-anchor="middle" x="400.25" y="-104.79" font-family="Times,serif" font-size="14.00">e = 7c + d^2</text>
</g>
<!-- c&#45;&gt;e -->
<g id="edge4" class="edge">
<title>c&#45;&gt;e</title>
<path fill="none" stroke="black" d="M301.29,-150.69C312,-146.23 323.59,-141.39 334.92,-136.66"/>
<polygon fill="black" stroke="black" points="335.95,-140.03 343.83,-132.95 333.26,-133.57 335.95,-140.03"/>
</g>
<!-- d&#45;&gt;e -->
<g id="edge5" class="edge">
<title>d&#45;&gt;e</title>
<path fill="none" stroke="black" d="M301.69,-69.83C312.21,-74.15 323.57,-78.81 334.69,-83.37"/>
<polygon fill="black" stroke="black" points="333.27,-86.57 343.85,-87.12 335.93,-80.09 333.27,-86.57"/>
</g>
<!-- f -->
<g id="node6" class="node">
<title>f</title>
<ellipse fill="none" stroke="black" cx="528.71" cy="-109.84" rx="33.44" ry="33.44"/>
<text xml:space="preserve" text-anchor="middle" x="528.71" y="-104.79" font-family="Times,serif" font-size="14.00">f = 2e</text>
</g>
<!-- e&#45;&gt;f -->
<g id="edge6" class="edge">
<title>e&#45;&gt;f</title>
<path fill="none" stroke="black" d="M459.67,-109.84C467.75,-109.84 475.93,-109.84 483.69,-109.84"/>
<polygon fill="black" stroke="black" points="483.56,-113.34 493.56,-109.84 483.56,-106.34 483.56,-113.34"/>
</g>
<!-- g -->
<g id="node8" class="node">
<title>g</title>
<ellipse fill="none" stroke="black" cx="644.9" cy="-74.84" rx="46.75" ry="46.75"/>
<text xml:space="preserve" text-anchor="middle" x="644.9" y="-69.79" font-family="Times,serif" font-size="14.00">g = 3f &#45; o</text>
</g>
<!-- f&#45;&gt;g -->
<g id="edge7" class="edge">
<title>f&#45;&gt;g</title>
<path fill="none" stroke="black" d="M561.22,-100.18C569.76,-97.57 579.26,-94.65 588.69,-91.76"/>
<polygon fill="black" stroke="black" points="589.69,-95.11 598.23,-88.84 587.64,-88.42 589.69,-95.11"/>
</g>
<!-- o -->
<g id="node7" class="node">
<title>o</title>
<ellipse fill="none" stroke="black" cx="528.71" cy="-40.84" rx="18" ry="18"/>
<text xml:space="preserve" text-anchor="middle" x="528.71" y="-35.79" font-family="Times,serif" font-size="14.00">o</text>
</g>
<!-- o&#45;&gt;g -->
<g id="edge8" class="edge">
<title>o&#45;&gt;g</title>
<path fill="none" stroke="black" d="M546.07,-45.71C557.5,-49.11 573.46,-53.87 589.18,-58.55"/>
<polygon fill="black" stroke="black" points="587.93,-61.83 598.52,-61.33 589.93,-55.12 587.93,-61.83"/>
</g>
</g>
</svg>
