<!DOCTYPE svg PUBLIC "-//W3C//DTD SVG 1.1//EN" "http://www.w3.org/Graphics/SVG/1.1/DTD/svg11.dtd">
<!-- Uploaded to: SVG Repo, www.svgrepo.com, Transformed by: SVG Repo Mixer Tools -->
<svg height="64px" width="64px" version="1.1" id="Layer_1" xmlns="http://www.w3.org/2000/svg" xmlns:xlink="http://www.w3.org/1999/xlink" viewBox="0 0 392.571 392.571" xml:space="preserve" fill="#000000">
<g id="SVGRepo_bgCarrier" stroke-width="0"/>
<g id="SVGRepo_tracerCarrier" stroke-linecap="round" stroke-linejoin="round"/>
<g id="SVGRepo_iconCarrier"> <path style="fill:#FFFFFF;" d="M192.232,211.019L85.371,168.675v119.79c8.275-1.681,16.743-2.521,25.471-2.521 c33.487,0,63.677,12.735,81.519,33.552c17.842-20.816,47.968-33.552,81.519-33.552c8.727,0,17.325,0.84,25.471,2.521V171.649 l-99.232,39.434h-7.887V211.019z"/> <path style="fill:#3f5d78;" d="M385.654,117.152L200.248,43.585c-2.521-1.034-5.495-1.034-8.016,0L6.697,117.152 c-9.438,4.461-8.404,17.067,0,20.299l56.889,22.562v142.739c0.517,7.176,6.4,13.059,14.481,10.279 c10.279-3.556,21.333-5.301,32.84-5.301c32,0,60.897,14.545,71.887,36.073c4.202,7.499,14.869,8.404,19.459-0.065 c10.925-21.527,39.693-36.008,71.693-36.008c11.507,0,22.626,1.745,32.84,5.301c7.046,2.392,14.287-2.909,14.481-10.279V162.987 l49.455-19.653v109.64c0,6.012,4.848,10.925,10.925,10.925c6.012,0,10.925-4.848,10.925-10.925V127.366 C392.571,122.712,389.856,119.544,385.654,117.152z M299.48,288.465c-8.275-1.681-16.743-2.521-25.471-2.521 c-33.487,0-63.677,12.735-81.519,33.552c-17.907-20.816-48.162-33.552-81.519-33.552c-8.727,0-17.325,0.84-25.471,2.521v-119.79 l106.861,42.343h8.016l99.232-39.434v116.816h-0.129V288.465z M196.24,189.168L40.313,127.366L196.24,65.564l155.798,61.802 L196.24,189.168z"/> <g> <path style="fill:#FFC10D;" d="M107.092,200.869h29.543c6.012,0,10.925,4.848,10.925,10.925c0,6.012-4.848,10.925-10.925,10.925 h-29.543v18.747h14.222c6.012,0,10.925,4.848,10.925,10.925c0,6.012-4.848,10.925-10.925,10.925h-14.222v0.84 c1.228,0,52.299-0.453,85.204,25.729c21.657-16.291,50.489-25.794,81.519-25.794c1.228,0,2.457,0,3.685,0.065v-76.154h-19.459 l-57.794,22.949h-8.016l-57.859-22.949h-27.281L107.092,200.869L107.092,200.869z"/> <polygon style="fill:#FFC10D;" points="196.24,189.168 198.955,188.069 193.525,188.069 "/> </g> <polygon style="fill:#ffffff;" points="40.313,127.366 196.24,189.168 352.038,127.366 196.24,65.435 "/> </g>
</svg>